<?xml version="1.0" standalone="no"?>
<!DOCTYPE svg PUBLIC "-//W3C//DTD SVG 20010904//EN"
 "http://www.w3.org/TR/2001/REC-SVG-20010904/DTD/svg10.dtd">
<svg version="1.0" xmlns="http://www.w3.org/2000/svg"
 width="245.000000pt" height="245.000000pt" viewBox="0 0 245.000000 245.000000"
 preserveAspectRatio="xMidYMid meet">

<g transform="translate(0.000000,245.000000) scale(0.100000,-0.100000)"
fill="#000000" stroke="none">
<path d="M955 2293 c-11 -3 -24 -9 -30 -13 -5 -4 -35 -11 -65 -15 -145 -19
-244 -72 -345 -183 -71 -79 -90 -122 -52 -122 8 0 13 -21 15 -57 7 -127 23
-283 46 -443 21 -139 21 -140 -8 -140 -30 0 -38 -10 -69 -89 l-26 -63 29 -72
c29 -74 60 -228 60 -302 0 -46 27 -84 60 -84 12 0 22 -18 34 -62 47 -169 216
-379 369 -459 52 -27 46 -10 -13 35 -76 58 -230 247 -279 343 -42 84 -81 295
-81 443 0 36 7 112 16 170 8 58 19 129 23 157 4 34 15 61 30 77 22 23 23 29
12 70 -6 25 -11 61 -11 80 0 53 36 140 78 185 37 40 38 40 140 50 148 16 223
14 301 -8 l70 -19 93 30 c90 29 97 30 223 24 111 -6 132 -10 146 -26 22 -26
63 -247 55 -297 -5 -33 0 -49 37 -113 70 -122 77 -149 92 -331 22 -267 4 -353
-113 -554 -55 -95 -110 -172 -169 -237 -24 -26 -43 -52 -43 -58 0 -17 84 47
139 105 95 101 162 216 191 331 11 40 28 86 40 101 18 26 19 33 8 83 -10 50
-8 65 17 160 45 171 47 346 4 357 -17 5 -19 16 -20 142 -2 238 -11 335 -33
360 -9 10 -16 34 -16 55 0 23 -4 35 -10 31 -6 -4 -20 5 -31 19 -25 32 -49 34
-49 4 -1 -17 -5 -13 -14 15 -18 48 -26 58 -111 126 -103 84 -134 103 -174 112
-20 4 -69 19 -109 33 -103 37 -383 67 -457 49z m169 -94 c72 0 122 -4 111 -8
-13 -5 6 -10 58 -14 117 -10 165 -19 142 -27 -14 -5 -7 -10 28 -20 26 -7 47
-16 47 -20 0 -4 34 -11 76 -15 69 -6 80 -10 127 -49 30 -23 61 -61 74 -86 21
-43 39 -52 55 -27 10 15 41 -27 44 -61 2 -13 8 -30 15 -38 6 -8 13 -33 15 -55
l4 -42 -31 7 c-17 3 -41 6 -53 7 -15 0 -8 6 22 19 23 11 42 22 42 26 0 4 -24
4 -52 0 l-53 -6 25 20 c14 11 29 20 34 20 5 0 7 3 4 6 -4 3 -17 0 -30 -7 -22
-12 -23 -11 -5 8 23 26 22 42 -3 36 -11 -3 -20 -9 -20 -14 0 -5 -7 -9 -16 -9
-12 0 -15 6 -11 22 12 43 -18 83 -99 137 -44 28 -97 57 -119 63 -22 6 -76 25
-120 44 -44 18 -93 35 -110 39 l-30 6 25 -16 25 -16 -25 5 c-34 7 -313 44
-373 49 -27 3 -45 1 -40 -3 4 -5 26 -10 48 -13 26 -2 13 -5 -35 -6 -41 -1
-113 -6 -160 -10 -47 -4 -86 -7 -88 -6 -1 1 24 12 57 24 63 23 188 42 235 35
16 -2 88 -4 160 -5z m-399 -69 c37 -1 34 -3 -30 -19 -38 -11 -86 -26 -105 -34
l-35 -15 60 -2 60 -2 -60 -10 c-76 -12 -88 -23 -34 -32 23 -4 65 -17 93 -29
l51 -22 -75 -5 -75 -5 55 -13 c30 -7 73 -18 95 -25 l40 -11 -55 -6 -55 -5 55
-18 c88 -27 94 -37 22 -37 -44 0 -75 6 -103 20 -49 26 -89 41 -89 35 0 -3 32
-26 71 -52 78 -52 78 -66 -1 -32 -68 29 -77 16 -9 -15 l54 -24 -60 -3 c-33 -1
-49 -3 -35 -6 77 -11 90 -15 90 -22 0 -4 -26 -12 -57 -18 l-58 -10 60 -2 60
-2 -52 -27 c-29 -14 -53 -29 -53 -34 0 -4 23 -4 50 -1 33 4 50 2 50 -5 0 -6
-8 -13 -17 -16 -10 -4 -29 -16 -43 -27 l-25 -20 35 7 35 6 -40 -36 c-22 -21
-30 -32 -18 -26 41 19 47 10 13 -20 l-35 -30 30 6 30 7 -22 -25 c-26 -28 -30
-43 -8 -34 13 5 13 2 -1 -19 -20 -31 -24 -31 -23 -2 0 12 -2 34 -5 49 -2 16
-9 70 -15 120 -7 51 -16 116 -22 145 -6 28 -7 67 -4 86 4 21 3 37 -4 41 -7 5
-7 13 1 26 10 15 10 22 0 32 -16 16 -15 28 3 28 22 0 18 31 -5 37 -30 8 -24
27 27 85 65 74 73 79 113 73 19 -2 53 -5 75 -5z m44 -316 c10 -9 -45 -3 -59 6
-11 7 -5 8 20 4 19 -4 37 -8 39 -10z m1152 -109 c2 -18 4 -44 14 -145 l8 -75
-28 25 c-27 25 -27 25 -5 28 21 3 18 8 -26 54 -45 46 -46 49 -17 34 58 -29 75
-14 21 19 l-33 19 30 7 30 6 -45 21 -45 22 48 0 c35 0 47 -4 48 -15z m19 -248
c0 -11 -1 -18 -3 -16 -1 2 -10 14 -21 26 -17 21 -17 21 3 16 13 -3 21 -13 21
-26z m0 -62 l-1 -30 -16 30 c-8 17 -23 39 -32 49 -16 19 -15 19 17 1 25 -15
32 -26 32 -50z m-1354 -37 c-11 -15 -16 -18 -16 -7 0 16 21 42 28 34 2 -2 -3
-14 -12 -27z m1403 -88 c1 -20 -1 -22 -9 -10 -5 8 -9 29 -9 45 0 26 2 27 9 10
5 -11 9 -31 9 -45z m-1451 1 c3 -29 1 -31 -21 -26 -18 5 -28 2 -37 -12 -9 -16
-10 -15 -4 7 9 37 34 72 47 67 7 -2 13 -18 15 -36z m-14 -50 c3 -5 2 -31 -3
-57 -8 -40 -6 -52 6 -66 9 -10 22 -18 30 -18 20 0 16 -18 -7 -30 -13 -7 -22
-26 -27 -53 l-6 -42 -14 58 c-7 31 -22 80 -34 108 -17 39 -19 54 -11 72 9 18
11 19 11 5 1 -27 18 -22 25 7 6 25 20 33 30 16z m1461 -68 c-6 -43 -7 -44 -26
-27 -17 15 -18 19 -4 34 8 9 15 23 15 32 0 19 13 33 18 18 2 -6 1 -32 -3 -57z
m-1415 -160 c0 -23 -4 -33 -9 -27 -9 8 -4 64 5 64 2 0 4 -17 4 -37z m3 -175
c3 -44 2 -78 -4 -78 -20 0 -37 50 -43 129 l-7 83 24 -28 c19 -23 25 -45 30
-106z"/>
<path d="M1593 1270 c-66 -14 -158 -68 -142 -85 3 -2 98 -5 212 -7 212 -3 229
0 190 34 -21 18 -119 48 -157 48 -14 0 -26 5 -26 10 0 11 -17 11 -77 0z m7
-35 c-46 -18 -59 -18 -36 0 11 8 31 15 45 14 24 0 23 -2 -9 -14z m98 -6 c-18
-7 -33 -7 -45 0 -14 8 -9 10 27 10 42 -1 43 -1 18 -10z m-192 -14 c-11 -8 -25
-15 -30 -15 -6 1 0 7 14 15 32 19 40 18 16 0z m312 -11 c4 -4 -4 -4 -18 -1
-14 4 -41 7 -60 8 -27 0 -31 2 -15 8 20 8 81 -2 93 -15z"/>
<path d="M855 1260 c-27 -4 -68 -14 -90 -21 -42 -15 -113 -74 -102 -85 3 -4
60 -2 126 5 65 6 174 11 240 11 l121 0 0 25 c0 36 -36 54 -131 65 -91 11 -91
11 -164 0z m110 -26 c19 -16 19 -16 -5 -9 -14 4 -32 11 -40 16 -12 7 -11 8 5
8 11 0 29 -7 40 -15z m-58 -2 c7 -4 -13 -9 -45 -10 -40 -1 -53 1 -42 8 18 12
70 13 87 2z m154 -9 c13 -15 12 -15 -11 -3 -34 17 -36 20 -18 20 9 0 22 -7 29
-17z m55 -8 c16 -12 16 -14 3 -15 -9 0 -22 7 -29 15 -16 19 0 19 26 0z"/>
<path d="M1518 1152 c-26 -3 -62 -32 -40 -32 6 0 14 5 17 10 3 6 11 10 17 10
7 0 -7 -14 -30 -32 -47 -36 -49 -47 -3 -24 41 21 48 20 53 -9 4 -18 1 -25 -11
-26 -9 -1 -5 -5 9 -9 35 -11 151 -11 125 0 -11 5 -14 9 -7 9 7 1 18 15 24 31
11 34 30 34 80 -1 34 -25 50 -24 20 0 -14 13 -18 21 -10 23 8 3 3 11 -13 21
-25 17 -175 35 -231 29z m76 -53 c15 -22 36 -18 36 7 0 8 5 12 10 9 17 -11 11
-44 -11 -55 -28 -15 -66 -5 -74 20 -13 40 15 53 39 19z"/>
<path d="M817 1114 c-16 -9 -27 -18 -24 -21 3 -2 16 1 29 8 l23 12 -24 -27
c-30 -31 -24 -33 23 -5 36 21 36 21 36 1 0 -11 3 -27 6 -35 3 -10 -2 -17 -13
-20 -10 -3 14 -5 52 -6 39 0 77 4 85 9 8 5 10 10 4 10 -6 0 -9 13 -6 30 2 17
6 30 9 30 2 0 22 -9 44 -21 23 -11 43 -18 47 -15 3 3 -12 13 -33 22 -26 10
-34 18 -26 23 41 25 -186 30 -232 5z m117 -29 c3 -8 12 -15 21 -15 8 0 15 7
15 15 0 8 5 15 10 15 14 0 13 -33 -2 -48 -15 -15 -64 -16 -73 -2 -8 13 3 50
15 50 4 0 10 -7 14 -15z"/>
<path d="M1367 1082 c-41 -58 -45 -118 -13 -187 14 -32 26 -70 26 -86 0 -16 5
-29 10 -29 17 0 11 69 -10 110 -27 53 -27 133 1 184 27 51 19 56 -14 8z"/>
<path d="M1156 769 c-30 -23 -34 -60 -9 -84 12 -13 26 -15 60 -10 29 4 49 2
59 -5 8 -8 26 -10 46 -5 18 3 55 9 81 12 76 8 96 58 43 103 -20 16 -20 6 0
-25 15 -22 14 -24 -11 -41 -14 -9 -28 -14 -32 -10 -3 3 -1 6 5 6 17 0 15 27
-3 34 -21 8 -41 -2 -60 -30 -20 -31 -48 -31 -69 2 -20 30 -72 32 -70 2 2 -19
-5 -22 -30 -12 -22 9 -20 34 6 61 27 29 19 30 -16 2z"/>
<path d="M1520 531 c0 -39 -368 -80 -468 -52 -27 8 -34 7 -43 -11 -6 -11 -8
-22 -5 -25 3 -3 8 1 11 9 6 14 12 14 52 2 91 -28 310 -8 409 36 35 15 59 19
84 15 l35 -7 -27 21 c-28 22 -48 27 -48 12z"/>
<path d="M1380 378 c-14 -6 -71 -11 -127 -11 -57 0 -103 -4 -103 -8 0 -15 83
-39 134 -39 39 0 66 7 100 26 25 14 48 30 51 35 8 12 -24 10 -55 -3z"/>
<path d="M1494 189 c-91 -72 -186 -93 -306 -68 -65 14 -97 30 -145 72 -29 25
-34 27 -25 10 14 -25 61 -62 109 -87 46 -23 160 -40 214 -32 69 10 249 126
217 139 -8 3 -37 -12 -64 -34z"/>
</g>
</svg>
